<svg id="visual" viewBox="0 0 960 300" width="960" height="300" xmlns="http://www.w3.org/2000/svg" xmlns:xlink="http://www.w3.org/1999/xlink" version="1.1"><path d="M0 124L20 127.8C40 131.7 80 139.3 120 141C160 142.7 200 138.3 240 142.5C280 146.7 320 159.3 360 161.5C400 163.7 440 155.3 480 155.8C520 156.3 560 165.7 600 167.5C640 169.3 680 163.7 720 155.8C760 148 800 138 840 134C880 130 920 132 940 133L960 134L960 301L940 301C920 301 880 301 840 301C800 301 760 301 720 301C680 301 640 301 600 301C560 301 520 301 480 301C440 301 400 301 360 301C320 301 280 301 240 301C200 301 160 301 120 301C80 301 40 301 20 301L0 301Z" fill="#8a2d5d"></path><path d="M0 174L20 171.2C40 168.3 80 162.7 120 160.7C160 158.7 200 160.3 240 166.2C280 172 320 182 360 186C400 190 440 188 480 184.8C520 181.7 560 177.3 600 178.2C640 179 680 185 720 183.3C760 181.7 800 172.3 840 165.8C880 159.3 920 155.7 940 153.8L960 152L960 301L940 301C920 301 880 301 840 301C800 301 760 301 720 301C680 301 640 301 600 301C560 301 520 301 480 301C440 301 400 301 360 301C320 301 280 301 240 301C200 301 160 301 120 301C80 301 40 301 20 301L0 301Z" fill="#9d3d5c"></path><path d="M0 217L20 215.7C40 214.3 80 211.7 120 211.5C160 211.3 200 213.7 240 213.3C280 213 320 210 360 207.3C400 204.7 440 202.3 480 204.3C520 206.3 560 212.7 600 209.5C640 206.3 680 193.7 720 191.7C760 189.7 800 198.3 840 204.8C880 211.3 920 215.7 940 217.8L960 220L960 301L940 301C920 301 880 301 840 301C800 301 760 301 720 301C680 301 640 301 600 301C560 301 520 301 480 301C440 301 400 301 360 301C320 301 280 301 240 301C200 301 160 301 120 301C80 301 40 301 20 301L0 301Z" fill="#ac4f5c"></path><path d="M0 239L20 235.2C40 231.3 80 223.7 120 223.3C160 223 200 230 240 230.7C280 231.3 320 225.7 360 222.5C400 219.3 440 218.7 480 218.2C520 217.7 560 217.3 600 220.7C640 224 680 231 720 233.8C760 236.7 800 235.3 840 234.7C880 234 920 234 940 234L960 234L960 301L940 301C920 301 880 301 840 301C800 301 760 301 720 301C680 301 640 301 600 301C560 301 520 301 480 301C440 301 400 301 360 301C320 301 280 301 240 301C200 301 160 301 120 301C80 301 40 301 20 301L0 301Z" fill="#b9615d"></path><path d="M0 228L20 229.7C40 231.3 80 234.7 120 239.3C160 244 200 250 240 249.2C280 248.3 320 240.7 360 239C400 237.3 440 241.7 480 241.3C520 241 560 236 600 238.5C640 241 680 251 720 252.7C760 254.3 800 247.7 840 246C880 244.3 920 247.7 940 249.3L960 251L960 301L940 301C920 301 880 301 840 301C800 301 760 301 720 301C680 301 640 301 600 301C560 301 520 301 480 301C440 301 400 301 360 301C320 301 280 301 240 301C200 301 160 301 120 301C80 301 40 301 20 301L0 301Z" fill="#c47561"></path><path d="M0 257L20 260.7C40 264.3 80 271.7 120 275.5C160 279.3 200 279.7 240 275.8C280 272 320 264 360 262.8C400 261.7 440 267.3 480 268C520 268.7 560 264.3 600 264.3C640 264.3 680 268.7 720 267.8C760 267 800 261 840 259C880 257 920 259 940 260L960 261L960 301L940 301C920 301 880 301 840 301C800 301 760 301 720 301C680 301 640 301 600 301C560 301 520 301 480 301C440 301 400 301 360 301C320 301 280 301 240 301C200 301 160 301 120 301C80 301 40 301 20 301L0 301Z" fill="#cd8967"></path></svg>